# xmcd
#
# Track frame offsets: 
#        150
#        11852
#        30075
#        43959
#        60952
#        73581
#        85696
#        101113
#        113591
#        123297
#
# Disc length: 1944 seconds
#
# Revision: 0
# Processed by: cddbd v1.5.2PL0 Copyright (c) Steve Scherf et al.
# Submitted via: ExactAudioCopy v0.99pb4
#
DISCID=7607960a
DTITLE=Bobby Flores - Eleven Roses
DYEAR=2009
DGENRE=Country
TTITLE0=If I Ever Fall In Love (With a Honky-Tonk Girl)
TTITLE1=Cajun Baby
TTITLE2=Are You Teasing Me 
TTITLE3=Eleven Roses
TTITLE4=Double Life
TTITLE5=Don't You Believe Her
TTITLE6=La Golondrina
TTITLE7=I Go Anywhere
TTITLE8=Sweet Nellie
TTITLE9=Danny Boy
EXTD=
EXTT0=
EXTT1=
EXTT2=
EXTT3=
EXTT4=
EXTT5=
EXTT6=
EXTT7=
EXTT8=
EXTT9=
PLAYORDER=
